# xmcd
#
# Track frame offsets:
#	150
#	15826
#	33767
#	46559
#	60850
#	74193
#	90455
#	107348
#	125692
#	137836
#	151439
#	165285
#	177773
#	194930
#
# Disc length: 2873 seconds
#
# Revision: 1
# Processed by: cddbd v1.5.2PL0 Copyright (c) Steve Scherf et al.
# Submitted via: audiograbber 1.83.01
#
DISCID=ab0b370e
DTITLE=Rogger Tibbs - The Place Where I Whorship 
DYEAR=1900
DGENRE=Country Gospel
TTITLE0=Just A Closer Walk With Thee
TTITLE1=The Old Rugged Cross
TTITLE2=Put The Hand In The Hand
TTITLE3=The Place Where I Worship
TTITLE4=Where Could I Go
TTITLE5=In The Garden
TTITLE6=Help Me
TTITLE7=Peace In The Valley
TTITLE8=Will The Circle Bw Unbroken
TTITLE9=Where No One Stands Alone
TTITLE10=Ill Fly Away
TTITLE11=Why Me Lord
TTITLE12=The Far Side Of Jorden
TTITLE13=How Great Thou Art
EXTD=
EXTT0=
EXTT1=
EXTT2=
EXTT3=
EXTT4=
EXTT5=
EXTT6=
EXTT7=
EXTT8=
EXTT9=
EXTT10=
EXTT11=
EXTT12=
EXTT13=
PLAYORDER=
